<svg xmlns="http://www.w3.org/2000/svg" version="1.1" xmlns:xlink="http://www.w3.org/1999/xlink" xmlns:svgjs="http://svgjs.dev/svgjs" width="1000" height="750" viewBox="0 0 1000 750"><rect width="1000" height="750" fill="#ffffff"></rect><g transform="matrix(0.5653436592449177,0,0,0.5653436592449177,217.33227301558225,83.23643724696356)"><svg viewBox="0 0 239 247" data-background-color="#ffffff" preserveAspectRatio="xMidYMid meet" height="1033" width="1000" xmlns="http://www.w3.org/2000/svg" xmlns:xlink="http://www.w3.org/1999/xlink"><g id="tight-bounds" transform="matrix(1,0,0,1,-0.001733378406186148,-0.09999999999999432)"><svg viewBox="0 0 239.00346646571214 247.2" height="247.2" width="239.00346646571214"><g><svg viewBox="0 0 239.00346646571214 247.2" height="247.2" width="239.00346646571214"><g><svg viewBox="0 0 239.00346646571214 247.2" height="247.2" width="239.00346646571214"><g id="textblocktransform"><svg viewBox="0 0 239.00346646571214 247.2" height="247.2" width="239.00346646571214" id="textblock"><g><svg viewBox="0 0 239.00346646571214 247.2" height="247.2" width="239.00346646571214"><g transform="matrix(1,0,0,1,0,0)"><svg width="239.00346646571214" viewBox="2.8600001335144043 -32.400001525878906 31.31999969482422 32.400001525878906" height="247.2" data-palette-color="#ed2647"><g class="undefined-text-0" data-fill-palette-color="primary" id="text-0"><path d="M27.69 0L15.36 0 15.36-6.47 23.36-6.47 23.36-25.93 15.36-25.93 15.36-32.4 27.69-32.4 34.18-25.93 34.18-6.47 27.69 0ZM2.86 0L2.86-32.4 13.65-32.4 13.65 0 2.86 0Z" fill="#ed2647" data-fill-palette-color="primary"></path></g></svg></g></svg></g></svg></g></svg></g><g></g></svg></g><defs></defs></svg><rect width="239.00346646571214" height="247.2" fill="none" stroke="none" visibility="hidden"></rect></g></svg></g></svg>